<svg xmlns="http://www.w3.org/2000/svg" xmlns:lucid="lucid" width="120" height="120"><g lucid:page-tab-id="0_0"><path d="M83.94 84.03H71c-.65 0-1.26-.38-1.52-.98l-18.14-38.9h-7.32c-.9 0-1.7-.75-1.7-1.68V31.25c0-.92.8-1.68 1.7-1.68h16.15c.7 0 1.26.38 1.52.98l18.1 38.9h4.14c.92 0 1.7.75 1.7 1.73v11.17c0 .92-.78 1.68-1.7 1.68zm-11.9-3.43H82.2v-7.73h-3.5c-.64 0-1.25-.38-1.5-.98L59.12 32.93H45.75v7.8h6.67c.7 0 1.3.37 1.56.97z" stroke="#fff" stroke-opacity="0" fill="#d86613"/><path d="M48.8 84.03H35c-.9 0-1.68-.77-1.68-1.7 0-.28.05-.48.17-.72l14.45-30.26c.3-.6.87-.97 1.53-.97.67 0 1.24.33 1.54.94l6.9 14.32c.23.47.23.97 0 1.45l-7.55 16c-.3.6-.87.96-1.54.96zm-11.1-3.4h10.02l6.8-14.27L49.43 56z" stroke="#fff" stroke-opacity="0" fill="#d86613"/><path d="M60 100c-22.08 0-40-17.92-40-40s17.92-40 40-40 40 17.92 40 40-17.92 40-40 40zm0-76.56c-20.24 0-36.56 16.32-36.56 36.56 0 20.24 16.32 36.56 36.56 36.56 20.24 0 36.56-16.32 36.56-36.56 0-20.24-16.32-36.56-36.56-36.56z" stroke="#fff" stroke-opacity="0" fill="#d86613"/></g></svg>