<svg xmlns="http://www.w3.org/2000/svg" xmlns:lucid="lucid" width="160" height="160"><g transform="translate(-1090.6911513189552 -984.8099220666252)" lucid:page-tab-id="0_0"><path d="M1110.7 1004.8h120v120h-120v-120z" stroke="#000" stroke-opacity="0" fill="url(#a)"/><path d="M1208.16 1085.45c1.02 0 1.9.83 1.9 1.9v16.84c0 1.06-.88 1.9-1.9 1.9h-19.9c-.8 0-1.43-.42-1.75-1.08l-28.17-60.85h-11.73c-.55 0-1.02-.16-1.33-.58-.4-.34-.56-.83-.56-1.33v-16.84c0-1.07.88-1.9 1.9-1.9h24.96c.7 0 1.34.4 1.65 1.07l28.03 60.85zm-1.8 16.92v-13.2h-6.3c-.7 0-1.35-.42-1.66-1.08l-28.02-60.86h-21.97v13.2h11.1c.8 0 1.43.43 1.74 1.1l28.2 60.84zm-49.3-45.65l10.64 22.04c.24.5.24 1.08 0 1.57l-11.57 24.7c-.32.65-1.03 1.06-1.73 1.06h-21.18c-.63 0-1.26-.34-1.57-.92-.4-.5-.4-1.15-.16-1.82l22.2-46.64c.3-.66.93-1.07 1.64-1.07.8 0 1.42.4 1.73 1.07zm-3.85 45.65l10.72-22.78-8.5-17.76-19.3 40.54z" stroke="#000" stroke-opacity="0" fill="#fff"/><defs><linearGradient gradientUnits="userSpaceOnUse" id="a" x1="1110.69" y1="1124.81" x2="1230.69" y2="1004.81"><stop offset="0%" stop-color="#c8511b"/><stop offset="100%" stop-color="#f90"/></linearGradient></defs></g></svg>