<svg xmlns="http://www.w3.org/2000/svg" xmlns:lucid="lucid" width="160" height="160"><g transform="translate(-1109.7822258159943 -1417.3708465193927)" lucid:page-tab-id="0_0"><path d="M1129.78 1437.37h120v120h-120v-120z" stroke="#000" stroke-opacity="0" fill="url(#a)"/><path d="M1175.33 1511.67c-.33-.4-.57-.88-.57-1.35 0-.47.24-.94.57-1.28 2.56-2.57 4.13-6.88 4.13-11.67 0-4.8-1.57-9.1-4.13-11.67-.33-.33-.57-.8-.57-1.28 0-.47.24-.94.57-1.35.75-.67 1.9-.67 2.65 0 5.53 5.47 18.16 5.47 23.7 0 .65-.67 1.9-.67 2.63 0 .34.4.5.88.5 1.35 0 .47-.16.95-.5 1.28-2.63 2.57-4.12 6.88-4.12 11.67 0 4.8 1.5 9.1 4.13 11.67.34.34.5.8.5 1.28 0 .47-.16.94-.5 1.35-.4.34-.9.54-1.3.54-.5 0-1-.2-1.33-.53-5.53-5.47-18.16-5.47-23.7 0-.74.67-1.9.67-2.64 0zm35.92 6.94c3.3-3.22 5.28-6.46 6.77-10.7l3.55 1.2c-1.65 4.8-3.96 8.44-7.68 12.14-6.7 6.55-15.45 9.85-24.2 9.85s-17.5-3.3-24.2-9.86c-3.46-3.43-5.7-7-7.5-12.13l3.55-1.2c1.65 4.58 3.55 7.68 6.6 10.7 11.9 11.75 31.2 11.75 43.1 0zm-49.7-31.75l-3.55-1.2c1.8-5.07 4.04-8.7 7.5-12.15 13.38-13.15 35.02-13.15 48.4 0 3.62 3.64 6.02 7.35 7.67 12.14l-3.55 1.2c-1.5-4.24-3.55-7.48-6.77-10.7-11.9-11.75-31.2-11.75-43.1 0-3.05 3.02-4.95 6.12-6.6 10.7zm67.04 16.4c-1.67 1.6-3.8 2.42-5.96 2.42-2.15 0-4.3-.8-5.94-2.43-1.65-1.55-2.48-3.64-2.48-5.87 0-2.22.83-4.3 2.48-5.87 1.57-1.55 3.7-2.42 5.94-2.42 2.23 0 4.38.87 5.94 2.42 3.3 3.24 3.3 8.5 0 11.74zm-65.73.06c-1.57 1.56-3.72 2.43-5.95 2.43s-4.37-.87-5.94-2.42c-3.3-3.23-3.3-8.5 0-11.8 1.57-1.55 3.7-2.42 5.94-2.42 2.23 0 4.38.87 5.95 2.42 3.3 3.3 3.3 8.57 0 11.8zm20.3-5.93c0 2.77-.4 5.4-1.23 7.76 2.48-.8 5.2-1.22 7.84-1.22 2.73 0 5.45.42 7.93 1.23-.82-2.36-1.3-5-1.3-7.76s.48-5.4 1.3-7.75c-4.95 1.6-10.8 1.6-15.76 0 .83 2.36 1.24 5 1.24 7.75zm-8.66 6.6l-3.13-2.08 1.82-2.7h-5.87v-3.65h5.86l-1.83-2.7 3.14-2.02 3.72 5.53c.42.6.42 1.42 0 2.1zm33.78 0l-3.14-2.08 1.8-2.7h-5.85v-3.65h5.86l-1.82-2.7 3.14-2.1 3.7 5.6c.42.62.42 1.43 0 2.03zm17.66-9.84c-.9-.87-2.06-1.35-3.3-1.35-1.24 0-2.4.48-3.3 1.35-.9.88-1.4 2.03-1.4 3.24 0 1.22.5 2.43 1.4 3.3 1.82 1.76 4.8 1.76 6.6 0 1.82-1.82 1.82-4.78 0-6.54zm-65.7 0c-.92-.87-2.08-1.35-3.32-1.35-1.24 0-2.4.48-3.3 1.35-1.8 1.82-1.8 4.72 0 6.54 1.74 1.76 4.87 1.76 6.6 0 1.82-1.82 1.82-4.72 0-6.54z" stroke="#000" stroke-opacity="0" fill="#fff"/><defs><linearGradient gradientUnits="userSpaceOnUse" id="a" x1="1129.78" y1="1557.37" x2="1249.78" y2="1437.37"><stop offset="0%" stop-color="#b0084d"/><stop offset="100%" stop-color="#ff4f8b"/></linearGradient></defs></g></svg>