<svg xmlns="http://www.w3.org/2000/svg" xmlns:lucid="lucid" width="160" height="160"><g lucid:page-tab-id="0_0"><path d="M-1419.06-1203.52h2000v1500h-2000z" fill="#fff"/><path d="M140 50h-13.68v10.92H140v5.4h-13.68v10.92H140v5.52h-13.68v10.92H140v5.4h-13.68V110H140v5.4h-13.68v8.28c0 1.44-1.2 2.64-2.64 2.64h-8.28V140H110v-13.68H99.08V140h-5.4v-13.68H82.76V140h-5.52v-13.68H66.32V140h-5.4v-13.68H50V140h-5.4v-13.68h-8.28c-1.44 0-2.64-1.2-2.64-2.64v-8.28H20V110h13.68V99.08H20v-5.4h13.68V82.76H20v-5.52h13.68V66.32H20v-5.4h13.68V50H20v-5.4h13.68v-8.28c0-1.44 1.2-2.64 2.64-2.64h8.28V20H50v13.68h10.92V20h5.4v13.68h10.92V20h5.52v13.68h10.92V20h5.4v13.68H110V20h5.4v13.68h8.28c1.44 0 2.64 1.2 2.64 2.64v8.28H140zM39.08 120.92h81.84V39.08H39.08z" stroke="#000" stroke-opacity="0" fill="#d45b07"/></g></svg>